<svg width="33" height="32" viewBox="0 0 33 32" fill="none" xmlns="http://www.w3.org/2000/svg">
<path fill-rule="evenodd" clip-rule="evenodd" d="M26.2169 9.70743C26.4512 9.70743 26.6855 9.81157 26.8417 10.0198C26.9979 10.2281 27.05 10.4884 26.9458 10.7227L25.0454 16.9967C24.681 18.2202 23.5876 19.0273 22.312 19.0273H14.1116C12.862 19.0273 11.7425 18.2202 11.3781 17.0227L8.98305 9.29091C8.85289 8.84834 8.46239 8.56198 7.9938 8.56198H5.78099C5.33843 8.56198 5 8.22355 5 7.78099C5 7.33843 5.33843 7 5.78099 7H7.9938C9.16528 7 10.1545 7.72892 10.493 8.82231L10.7793 9.70743H26.2169ZM14.2937 19.9124C12.966 19.9124 11.8987 21.0058 11.8987 22.3334C11.8987 23.6872 12.966 24.7805 14.2937 24.7805C15.6214 24.7805 16.6887 23.6872 16.6887 22.3334C16.6887 20.9797 15.6214 19.9124 14.2937 19.9124ZM21.7653 19.9124C20.4376 19.9124 19.3702 21.0058 19.3702 22.3334C19.3702 23.6872 20.4376 24.7805 21.7653 24.7805C23.093 24.7805 24.1603 23.6872 24.1603 22.3334C24.1343 20.9797 23.0669 19.9124 21.7653 19.9124Z" fill="white"/>
<path d="M25 16C29.4183 16 33 12.4183 33 8C33 3.58172 29.4183 0 25 0C20.5817 0 17 3.58172 17 8C17 12.4183 20.5817 16 25 16Z" fill="#0000A3"/>
<path d="M24.0566 9.43201C24.1766 10.064 24.5446 10.38 25.1606 10.38C25.5846 10.38 25.8846 10.192 26.0606 9.81601C26.2366 9.44001 26.3246 8.82801 26.3246 7.98001C26.1486 8.22801 25.9086 8.42001 25.6046 8.55601C25.3006 8.69201 24.9606 8.76001 24.5846 8.76001C24.0726 8.76001 23.6166 8.65601 23.2166 8.44801C22.8166 8.23201 22.5006 7.91601 22.2686 7.50001C22.0446 7.07601 21.9326 6.56401 21.9326 5.96401C21.9326 5.37201 22.0526 4.85601 22.2926 4.41601C22.5406 3.97601 22.8886 3.63601 23.3366 3.39601C23.7926 3.15601 24.3286 3.03601 24.9446 3.03601C26.1286 3.03601 26.9566 3.40401 27.4286 4.14001C27.9006 4.87601 28.1366 5.96001 28.1366 7.39201C28.1366 8.43201 28.0406 9.29201 27.8486 9.97201C27.6646 10.644 27.3486 11.156 26.9006 11.508C26.4606 11.86 25.8566 12.036 25.0886 12.036C24.4806 12.036 23.9606 11.916 23.5286 11.676C23.1046 11.436 22.7766 11.12 22.5446 10.728C22.3206 10.336 22.1926 9.90401 22.1606 9.43201H24.0566ZM25.0526 7.14001C25.3886 7.14001 25.6566 7.04001 25.8566 6.84001C26.0566 6.63201 26.1566 6.35201 26.1566 6.00001C26.1566 5.61601 26.0526 5.32001 25.8446 5.11201C25.6366 4.90401 25.3566 4.80001 25.0046 4.80001C24.6526 4.80001 24.3726 4.90801 24.1646 5.12401C23.9646 5.33201 23.8646 5.62001 23.8646 5.98801C23.8646 6.33201 23.9646 6.61201 24.1646 6.82801C24.3726 7.03601 24.6686 7.14001 25.0526 7.14001Z" fill="#FDFDFA"/>
</svg>
